<svg width="50" height="50" viewBox="0 0 50 50" fill="none" xmlns="http://www.w3.org/2000/svg">
<path d="M9.89995 27.5C9.7806 27.5 9.66615 27.5474 9.58175 27.6318C9.49736 27.7162 9.44995 27.8306 9.44995 27.95C9.44995 28.0693 9.49736 28.1838 9.58175 28.2682C9.66615 28.3526 9.7806 28.4 9.89995 28.4C10.0193 28.4 10.1338 28.3526 10.2181 28.2682C10.3025 28.1838 10.35 28.0693 10.35 27.95C10.35 27.8306 10.3025 27.7162 10.2181 27.6318C10.1338 27.5474 10.0193 27.5 9.89995 27.5ZM39.45 15.15C39.3571 15.15 39.2681 15.1869 39.2025 15.2525C39.1368 15.3181 39.0999 15.4072 39.0999 15.5C39.0999 15.5928 39.1368 15.6818 39.2025 15.7475C39.2681 15.8131 39.3571 15.85 39.45 15.85C39.5428 15.85 39.6318 15.8131 39.6974 15.7475C39.7631 15.6818 39.7999 15.5928 39.7999 15.5C39.7999 15.4072 39.7631 15.3181 39.6974 15.2525C39.6318 15.1869 39.5428 15.15 39.45 15.15Z" fill="white"/>
<path d="M38.1 5.5C38.0409 5.5 37.9823 5.51164 37.9277 5.53425C37.8731 5.55687 37.8235 5.59002 37.7818 5.6318C37.74 5.67359 37.7068 5.7232 37.6842 5.77779C37.6616 5.83239 37.65 5.8909 37.65 5.95C37.65 6.00909 37.6616 6.06761 37.6842 6.12221C37.7068 6.1768 37.74 6.22641 37.7818 6.2682C37.8235 6.30998 37.8731 6.34313 37.9277 6.36575C37.9823 6.38836 38.0409 6.4 38.1 6.4C38.159 6.4 38.2176 6.38836 38.2722 6.36575C38.3268 6.34313 38.3764 6.30998 38.4182 6.2682C38.4599 6.22641 38.4931 6.1768 38.5157 6.12221C38.5383 6.06761 38.55 6.00909 38.55 5.95C38.55 5.8909 38.5383 5.83239 38.5157 5.77779C38.4931 5.7232 38.4599 5.67359 38.4182 5.6318C38.3764 5.59002 38.3268 5.55687 38.2722 5.53425C38.2176 5.51164 38.159 5.5 38.1 5.5ZM10.15 31.3C10.0909 31.3 10.0323 31.3116 9.97774 31.3343C9.92315 31.3569 9.87354 31.39 9.83175 31.4318C9.78997 31.4736 9.75682 31.5232 9.73421 31.5778C9.71159 31.6324 9.69995 31.6909 9.69995 31.75C9.69995 31.8091 9.71159 31.8676 9.73421 31.9222C9.75682 31.9768 9.78997 32.0264 9.83175 32.0682C9.87354 32.11 9.92315 32.1431 9.97774 32.1657C10.0323 32.1884 10.0909 32.2 10.15 32.2C10.209 32.2 10.2676 32.1884 10.3222 32.1657C10.3768 32.1431 10.4264 32.11 10.4681 32.0682C10.5099 32.0264 10.5431 31.9768 10.5657 31.9222C10.5883 31.8676 10.6 31.8091 10.6 31.75C10.6 31.6909 10.5883 31.6324 10.5657 31.5778C10.5431 31.5232 10.5099 31.4736 10.4681 31.4318C10.4264 31.39 10.3768 31.3569 10.3222 31.3343C10.2676 31.3116 10.209 31.3 10.15 31.3Z" fill="#F1BC19"/>
<path d="M24.55 5.85001C19.5772 5.85001 14.8081 7.82545 11.2918 11.3418C7.77549 14.8581 5.80005 19.6272 5.80005 24.6C5.80005 29.5728 7.77549 34.342 11.2918 37.8583C14.8081 41.3746 19.5772 43.35 24.55 43.35C29.5229 43.35 34.292 41.3746 37.8083 37.8583C41.3246 34.342 43.3 29.5728 43.3 24.6C43.3 19.6272 41.3246 14.8581 37.8083 11.3418C34.292 7.82545 29.5229 5.85001 24.55 5.85001Z" fill="#E4E4F9"/>
<path d="M40.85 5.04999C40.3195 5.04999 39.8108 5.2607 39.4358 5.63577C39.0607 6.01085 38.85 6.51955 38.85 7.04999C38.85 7.58042 39.0607 8.08913 39.4358 8.4642C39.8108 8.83927 40.3195 9.04999 40.85 9.04999C41.3804 9.04999 41.8891 8.83927 42.2642 8.4642C42.6393 8.08913 42.85 7.58042 42.85 7.04999C42.85 6.51955 42.6393 6.01085 42.2642 5.63577C41.8891 5.2607 41.3804 5.04999 40.85 5.04999Z" fill="#F1BC19"/>
<path d="M42.85 10.65C42.5981 10.65 42.3564 10.7501 42.1783 10.9282C42.0001 11.1064 41.9 11.348 41.9 11.6C41.9 11.852 42.0001 12.0936 42.1783 12.2717C42.3564 12.4499 42.5981 12.55 42.85 12.55C43.102 12.55 43.3436 12.4499 43.5218 12.2717C43.6999 12.0936 43.8 11.852 43.8 11.6C43.8 11.348 43.6999 11.1064 43.5218 10.9282C43.3436 10.7501 43.102 10.65 42.85 10.65Z" fill="#EE3E54"/>
<path d="M38.35 36.85C38.098 36.85 37.8564 36.9501 37.6782 37.1283C37.5001 37.3064 37.4 37.548 37.4 37.8C37.4 38.052 37.5001 38.2936 37.6782 38.4718C37.8564 38.6499 38.098 38.75 38.35 38.75C38.602 38.75 38.8436 38.6499 39.0218 38.4718C39.1999 38.2936 39.3 38.052 39.3 37.8C39.3 37.548 39.1999 37.3064 39.0218 37.1283C38.8436 36.9501 38.602 36.85 38.35 36.85ZM6.75 29.35C6.21957 29.35 5.71086 29.5607 5.33579 29.9358C4.96071 30.3109 4.75 30.8196 4.75 31.35C4.75 31.8804 4.96071 32.3891 5.33579 32.7642C5.71086 33.1393 6.21957 33.35 6.75 33.35C7.28043 33.35 7.78914 33.1393 8.16421 32.7642C8.53929 32.3891 8.75 31.8804 8.75 31.35C8.75 30.8196 8.53929 30.3109 8.16421 29.9358C7.78914 29.5607 7.28043 29.35 6.75 29.35Z" fill="#FBCD59"/>
<path d="M11.9 42.45C11.648 42.45 11.4064 42.5501 11.2282 42.7283C11.05 42.9064 10.95 43.1481 10.95 43.4C10.95 43.652 11.05 43.8936 11.2282 44.0718C11.4064 44.2499 11.648 44.35 11.9 44.35C12.1519 44.35 12.3935 44.2499 12.5717 44.0718C12.7499 43.8936 12.85 43.652 12.85 43.4C12.85 43.1481 12.7499 42.9064 12.5717 42.7283C12.3935 42.5501 12.1519 42.45 11.9 42.45Z" fill="#EE3E54"/>
<path d="M37.65 13.85C37.5318 13.85 37.4148 13.8733 37.3056 13.9185C37.1964 13.9637 37.0972 14.03 37.0136 14.1136C36.9301 14.1972 36.8638 14.2964 36.8185 14.4056C36.7733 14.5148 36.75 14.6318 36.75 14.75C36.75 14.8682 36.7733 14.9852 36.8185 15.0944C36.8638 15.2036 36.9301 15.3028 37.0136 15.3864C37.0972 15.47 37.1964 15.5363 37.3056 15.5815C37.4148 15.6267 37.5318 15.65 37.65 15.65C37.7682 15.65 37.8852 15.6267 37.9944 15.5815C38.1036 15.5363 38.2028 15.47 38.2864 15.3864C38.37 15.3028 38.4363 15.2036 38.4815 15.0944C38.5267 14.9852 38.55 14.8682 38.55 14.75C38.55 14.6318 38.5267 14.5148 38.4815 14.4056C38.4363 14.2964 38.37 14.1972 38.2864 14.1136C38.2028 14.03 38.1036 13.9637 37.9944 13.9185C37.8852 13.8733 37.7682 13.85 37.65 13.85ZM8.65002 24C8.3185 24 8.00056 24.1317 7.76614 24.3661C7.53172 24.6005 7.40002 24.9185 7.40002 25.25C7.40002 25.5815 7.53172 25.8995 7.76614 26.1339C8.00056 26.3683 8.3185 26.5 8.65002 26.5C8.98154 26.5 9.29949 26.3683 9.53391 26.1339C9.76833 25.8995 9.90002 25.5815 9.90002 25.25C9.90002 24.9185 9.76833 24.6005 9.53391 24.3661C9.29949 24.1317 8.98154 24 8.65002 24Z" fill="white"/>
<path d="M33.8 35.2C33.6 34.1 33.1501 33.5 32.1501 33.2L32 33.15L31.65 33C31 32.75 27.3 31.35 27.3 31.35C27 31.3 26.8 31.1 26.7 30.8C26.6 30.35 26.55 29.85 26.6 29.35C25.8 29.65 24.95 29.85 24.1 30.05C23.15 30.15 21.1 28.9 21.1 28.9C21.1 28.9 21.05 30.4 21 30.75C20.9 31.05 20.65 31.25 20.35 31.3L16.8 32.6C16.4 32.7 16.05 32.85 15.7 33.05C14.95 33.55 14.4 34.25 14.1 35.15C14.1 35.15 13.85 36.8 13.85 36.85C13.85 37.1 13.8 37.35 13.8 37.6C17.7 40.25 20.8 40.95 26.15 40.75C28.6 40.65 32.2 39.45 34.1 38.5C34 36.45 33.8 35.2 33.8 35.2Z" fill="#E5AC80"/>
<path d="M32.05 33.1C32 33.1 31.95 33.05 31.9 33.05L31.6 32.95C31.2 32.8 29.65 32.2 28.5 31.8H28.45C27.2 32.45 25.4 33.4 23.75 33.4C22.1 33.4 20.45 32.5 19.05 31.75L18.9 31.8L16.7 32.6C16.3 32.7 15.95 32.85 15.6 33.05C14.85 33.55 14.3 34.3 14.05 35.15C14.05 35.15 13.8 36.8 13.8 36.85C13.8 37.1 13.75 39.55 13.75 39.85C17.65 42.5 20.75 43.2 26.1 43C28.55 42.9 32.15 41.7 34.05 40.75C33.95 38.65 33.75 35.15 33.75 35.15C33.5 34.05 33.05 33.45 32.05 33.1Z" fill="#8889B9"/>
<path d="M17.2001 42.05C17.1001 42.05 17.05 42 17.05 41.9V39.9C17.05 39.8 17.1001 39.75 17.2001 39.75C17.3001 39.75 17.3501 39.8 17.3501 39.9V41.9C17.3501 42 17.3001 42.05 17.2001 42.05ZM30.3501 42.4C30.2501 42.4 30.2001 42.35 30.2001 42.25V39.95C30.2001 39.85 30.2501 39.8 30.3501 39.8C30.4501 39.8 30.5001 39.85 30.5001 39.95V42.25C30.5001 42.3 30.4501 42.4 30.3501 42.4Z" fill="#6A6C9B"/>
<path d="M29.95 22H29.75C29.25 22 29.15 22.15 29.15 21.85C29.2 21.35 29.1 19.2 29.1 19.1C29.1 16.9 26.75 15.1 23.85 15H23.75C20.85 15.1 18.5 16.9 18.5 19.1C18.5 19.2 18.4 21.35 18.45 21.85C18.45 22.15 18.35 21.95 17.85 22H17.65C17.15 22 16.75 22.3 16.6 22.8C16.65 22.85 16.9 24.65 17.3 25.35C17.5 25.75 17.85 25.8 18.2 26.05C18.35 26.15 18.45 26.35 18.5 26.55C18.75 27.35 19.2 28 19.85 28.55C20.15 28.85 22.1 30.9 23.75 30.8C25.4 30.7 27.4 28.85 27.7 28.55C28.3 28 28.8 27.35 29.05 26.55C29.1 26.35 29.2 26.15 29.35 26.05C29.7 25.8 30.05 25.75 30.25 25.35C30.65 24.65 30.9 22.85 30.95 22.8C30.85 22.3 30.45 22 29.95 22Z" fill="#EDBC94"/>
<path d="M23.9 25.95C24.25 25.95 24.55 25.8 24.8 25.55C24.8 25.55 24.8 25.5 24.8 25.45C24.8 25.45 24.75 25.45 24.7 25.45C24.25 25.85 23.55 25.85 23.1 25.45H23.05H23C23 25.45 23 25.5 23 25.55C23.25 25.85 23.55 25.95 23.9 25.95ZM22.8 20.85L23 20.45C22.05 20.25 21.1 20.25 20.15 20.55L20.4 20.95C21.2 20.7 22 20.65 22.8 20.85ZM27.4 20.85L27.6 20.45C26.65 20.25 25.7 20.25 24.75 20.55L25 20.95C25.8 20.7 26.6 20.65 27.4 20.85ZM21.45 21.45C21.25 21.45 21.05 21.6 20.95 21.8H21.05C21.25 21.8 21.4 22 21.35 22.2C21.35 22.35 21.2 22.5 21.05 22.5C21 22.5 20.95 22.5 20.9 22.45C20.95 22.75 21.2 23 21.5 23C21.95 22.9 22.2 22.45 22.1 22C22 21.75 21.8 21.5 21.45 21.45ZM26.25 21.45C26.05 21.45 25.9 21.55 25.8 21.7C25.85 21.7 25.9 21.7 25.9 21.7C26.1 21.7 26.25 21.85 26.25 22.05C26.25 22.25 26.1 22.4 25.9 22.4C25.8 22.4 25.7 22.35 25.65 22.25C25.75 22.6 26.1 22.8 26.45 22.7C26.8 22.6 27 22.25 26.9 21.9C26.8 21.65 26.55 21.45 26.25 21.45Z" fill="#512C2B"/>
<path d="M24.45 43.35C20 43.35 17.1 42.45 13.7 40.15C13.65 40.1 13.6 40.05 13.6 39.95C13.6 39.9 13.6 39.75 13.6 39.5C13.6 38.5 13.65 36.1 13.9 35.2C14.1 34.25 14.7 33.45 15.6 33C15.95 32.8 16.35 32.65 16.75 32.55L20.3 31.25C20.55 31.2 20.75 31.05 20.8 30.8C20.8 30.65 20.85 30.2 20.85 29.75C20.5 29.5 20.15 29.2 19.8 28.95C19.15 28.35 18.65 27.6 18.4 26.8C18.4 26.6 18.3 26.45 18.2 26.35C18.1 26.25 18 26.2 17.9 26.15C17.65 26 17.45 25.9 17.25 25.55C16.85 24.7 16.6 23.8 16.55 22.85C16.55 22.8 16.55 22.8 16.55 22.75C16.7 22.2 17.2 21.8 17.8 21.8H18C18.15 21.8 18.3 21.8 18.4 21.85C18.35 21.35 18.4 19.95 18.45 19.35C18.45 19.2 18.45 19.1 18.45 19.1C18.45 16.75 20.85 14.8 23.9 14.7H24C27.05 14.8 29.45 16.75 29.45 19.1C29.45 19.1 29.45 19.2 29.45 19.35C29.45 19.95 29.5 21.4 29.5 21.85C29.6 21.85 29.75 21.8 29.9 21.8H30.1C30.7 21.8 31.15 22.2 31.35 22.75V22.8C31.25 23.75 31.05 24.65 30.65 25.5C30.45 25.85 30.25 25.95 30 26.1C29.9 26.15 29.8 26.2 29.7 26.3C29.6 26.4 29.5 26.55 29.5 26.7C29.25 27.6 28.75 28.35 28.1 28.9C27.75 29.2 27.35 29.5 26.95 29.8C26.95 30.15 27 30.45 27.1 30.8C27.2 31 27.35 31.15 27.6 31.2C27.75 31.25 31.35 32.6 31.95 32.85L32.4 33.05C33.45 33.35 34 34 34.2 35.2C34.2 35.2 34.2 35.2 34.2 35.25C34.2 35.3 34.4 38.75 34.5 40.85C34.5 40.95 34.45 41 34.4 41.05C32.4 42.05 28.75 43.25 26.35 43.35C25.55 43.35 24.95 43.35 24.45 43.35ZM14 39.9C17.7 42.4 20.8 43.15 26.15 42.95C28.4 42.85 31.9 41.75 33.9 40.75C33.8 38.7 33.65 35.55 33.65 35.3C33.45 34.25 33 33.75 32.1 33.45L31.6 33.25C31 33 27.3 31.65 27.25 31.6C26.95 31.5 26.65 31.25 26.5 30.95C26.35 30.55 26.35 30.1 26.35 29.7C26.35 29.65 26.4 29.6 26.45 29.55C26.85 29.25 27.25 28.95 27.65 28.65C28.25 28.1 28.7 27.45 28.95 26.65C28.95 26.45 29.1 26.2 29.3 26.05C29.45 25.95 29.55 25.9 29.65 25.8C29.85 25.7 30 25.6 30.15 25.35C30.5 24.55 30.75 23.7 30.8 22.85C30.7 22.5 30.35 22.25 29.95 22.25H29.75C29.6 22.25 29.5 22.25 29.4 22.3C29.25 22.3 29.15 22.35 29.05 22.25C28.95 22.15 28.95 22 28.95 21.95C29 21.55 28.95 20 28.9 19.4C28.9 19.25 28.9 19.15 28.9 19.15C28.9 17 26.7 15.25 23.85 15.15H23.75C20.95 15.25 18.7 17 18.7 19.15C18.7 19.15 18.7 19.25 18.7 19.4C18.7 20 18.65 21.5 18.65 21.95C18.65 22.1 18.65 22.2 18.55 22.25C18.45 22.35 18.35 22.3 18.2 22.3C18.1 22.3 18 22.25 17.85 22.25H17.65C17.25 22.25 16.95 22.5 16.8 22.85C16.9 23.7 17.1 24.55 17.45 25.35C17.55 25.55 17.75 25.65 17.95 25.75C18.05 25.8 18.2 25.9 18.3 26C18.5 26.15 18.65 26.4 18.65 26.65C18.9 27.4 19.3 28.05 19.9 28.6C20.25 28.9 20.65 29.2 21 29.45C21.05 29.5 21.1 29.55 21.1 29.6C21.1 30.1 21.05 30.65 21 30.85C20.85 31.25 20.55 31.5 20.2 31.6L16.65 32.9C16.25 33 15.9 33.15 15.6 33.35C14.8 33.75 14.3 34.45 14.1 35.3C13.85 36.15 13.85 38.5 13.8 39.5C14 39.7 14 39.8 14 39.9Z" fill="#472B29"/>
<path d="M30 24.4L29.7 24.35L29.8 23.45L29.3 23.65L29.2 23.35L29.95 23.05C30 23.05 30.05 23.05 30.1 23.05C30.15 23.1 30.15 23.15 30.15 23.2L30 24.4ZM17.9 24.2L17.75 23.05C17.75 23 17.75 22.95 17.8 22.9C17.85 22.85 17.9 22.85 17.95 22.9L18.7 23.2L18.6 23.5L18.1 23.3L18.2 24.2H17.9Z" fill="#D3A47D"/>
<path d="M18.5499 26.45C18.4999 26.45 18.45 26.4 18.45 26.35L18.5 22C18.5 21.95 18.55 21.9 18.6 21.9C18.65 21.9 18.7 21.95 18.7 22L18.6 26.35C18.65 26.4 18.5999 26.45 18.5499 26.45ZM29.25 26.45C29.2 26.45 29.15 26.4 29.15 26.35L29.0499 22C29.0499 21.95 29.0999 21.9 29.15 21.9C29.2 21.9 29.25 21.95 29.25 22L29.35 26.35C29.35 26.4 29.3 26.4 29.25 26.45Z" fill="#472B29"/>
<path d="M22.15 27.15C22.15 27.25 22.1 27.3 22.1 27.4C22.1 28.1 22.85 28.65 23.8 28.65C24.75 28.65 25.5 28.1 25.5 27.4C25.5 27.3 25.5 27.25 25.45 27.15H22.15Z" fill="#6D1B18"/>
<path d="M24.75 28.45C24.2 28.05 23.45 28.05 22.95 28.45C23.5 28.7 24.15 28.7 24.75 28.45Z" fill="#EE3E54"/>
<path d="M22.65 27.15V27.35C22.65 27.55 22.9 27.7 23.2 27.7H24.5C24.8 27.7 25.05 27.55 25.05 27.35V27.15H22.65Z" fill="#FDFCEF"/>
<path d="M23.8 28.75C22.8 28.75 22 28.15 22 27.4C22 27.3 22 27.2 22.05 27.15C22.05 27.1 22.1 27.1 22.15 27.1H25.5C25.55 27.1 25.6 27.15 25.6 27.15C25.6 27.25 25.65 27.3 25.65 27.4C25.65 28.1 24.85 28.75 23.8 28.75ZM22.2 27.25C22.2 27.3 22.2 27.35 22.2 27.4C22.2 28.05 22.9 28.55 23.8 28.55C24.7 28.55 25.4 28.05 25.4 27.4C25.4 27.35 25.4 27.3 25.4 27.25H22.2Z" fill="#472B29"/>
<path d="M26.25 25.45C26.85 25.95 25.75 26.4 25.35 26.2C25.1 26.05 24.95 25.8 24.65 25.8C24.35 25.8 24.1 25.9 23.9 26.1C23.7 25.9 23.45 25.8 23.2 25.8C22.9 25.8 22.75 26.05 22.5 26.2C22 26.45 20.9 26 21.55 25.5C21.05 25.7 20.75 26.25 20.95 26.75C21.2 27.4 22.15 27.4 22.65 27.3C22.85 27.25 23.05 27.2 23.25 27.2C23.5 27.2 23.8 27.5 24.05 27.35C24.2 27.25 24.4 27.2 24.55 27.15C24.75 27.15 24.95 27.2 25.15 27.25C25.65 27.35 26.6 27.35 26.85 26.7C27 26.2 26.75 25.65 26.25 25.45ZM26.45 29.05C26.4 29.1 26.4 29.1 26.35 29.15C26.15 29.6 25.8 29.95 25.4 30.25C25.1 30.5 24.75 30.7 24.5 30.3C24.3 30 24.2 29.8 24.65 29.75C24.85 29.25 24.3 29.1 23.8 29.1C23.3 29.1 22.75 29.25 22.95 29.75C23.4 29.8 23.3 30.05 23.1 30.3C22.85 30.7 22.45 30.5 22.2 30.25C21.85 30 21.6 29.75 21.35 29.4C21.35 29.35 21.3 29.3 21.3 29.3C21.2 29.15 20.95 29.1 20.8 29.15C20.7 29.2 20.65 29.25 20.6 29.35C20.75 29.95 21.1 30.5 21.65 30.85C21.9 31 22.15 31.1 22.4 31.2C22.7 31.75 23.25 32.1 23.9 32.1C24.55 32.1 25.1 31.7 25.4 31.15C26.2 30.8 26.8 30.15 27 29.3C27.05 29.1 26.65 28.95 26.45 29.05ZM29.75 16.5C29.75 16 29.3 15.55 28.8 15.5C28.75 15.15 28.5 14.9 28.2 14.75C28.2 14.7 28.2 14.7 28.2 14.65C28.15 13.95 27.6 13.45 26.9 13.45C26.8 13.45 26.65 13.45 26.55 13.5C26.1 12.95 25.35 12.8 24.75 13.15C24.5 13 24.25 12.9 23.95 12.9C23.65 12.9 23.35 13 23.1 13.2C22.9 13.1 22.65 13 22.45 13C22 13 21.65 13.25 21.4 13.6C20.9 13.35 20.35 13.55 20.1 14.05C20.05 14.15 20 14.25 20 14.35V14.4C19.5 14.5 19.15 14.8 19 15.25H18.9C18.35 15.25 17.85 15.7 17.85 16.25C17.85 16.5 17.95 16.8 18.15 17C18 18.7 18.1 20.45 18.45 22.1C18.5 22.2 18.6 22.25 18.7 22.25C18.75 22.25 18.85 22.15 18.85 22.1C18.9 20.75 19.2 18.1 20.65 18.3C21.7 18.45 22.8 18.5 23.85 18.5C24.95 18.5 26 18.4 27.05 18.2C28.5 18 28.9 20.6 28.95 21.95C28.95 22.05 29.05 22.15 29.15 22.1C29.25 22.1 29.3 22.05 29.3 21.95C29.6 20.35 29.65 18.75 29.45 17.15C29.7 17 29.75 16.75 29.75 16.5Z" fill="#512C2B"/>
<path d="M23.2 21.5C22.2 20.65 18.45 21.25 18.45 21.25C18.5 21.45 18.6 21.65 18.65 21.85C18.95 21.85 18.95 22.3 18.95 22.5C19.1 23.3 19.85 23.85 21.4 23.85C22.95 23.85 23.3499 23 23.4 22.5C23.4 22.1 23.35 21.8 23.2 21.5ZM23 22.45C22.9 23.15 22.3 23.55 21.35 23.6H21.0499C19.4999 23.6 19.25 22.65 19.2 22C19.2 21.65 19.5499 21.35 20.0499 21.3C20.3499 21.3 20.6499 21.3 21.0499 21.3C22.1999 21.3 22.7 21.5 22.85 21.65C22.95 21.9 23.05 22.2 23 22.45ZM24.2999 22.4C24.3499 22.9 24.6999 23.7 26.2999 23.75C27.9 23.8 28.6 23.2 28.75 22.4C28.75 22.25 28.7999 21.8 29.0499 21.75C29.0999 21.55 29.15 21.35 29.25 21.15C29.25 21.15 25.5 20.55 24.5 21.4C24.3 21.75 24.2499 22.1 24.2999 22.4ZM24.85 21.7C25 21.5 25.4999 21.35 26.65 21.35C27 21.35 27.3499 21.35 27.65 21.35C28.15 21.4 28.5 21.7 28.5 22.05C28.45 22.65 28.2 23.65 26.65 23.65H26.35C25.35 23.6 24.75 23.2 24.7 22.5C24.65 22.15 24.7 21.9 24.85 21.7Z" fill="#EE3E54"/>
<path d="M24.5 22.15C24.3 22.05 24.0499 22 23.7999 22C23.5999 22 23.35 22.05 23.15 22.15L22.95 21.75H24.7L24.5 22.15Z" fill="#EE3E54"/>
<path d="M34.8 28.85C33.8545 28.85 32.9182 29.0362 32.0447 29.3981C31.1711 29.7599 30.3774 30.2903 29.7088 30.9588C29.0402 31.6274 28.5099 32.4211 28.148 33.2947C27.7862 34.1682 27.6 35.1045 27.6 36.05C27.6 36.9955 27.7862 37.9318 28.148 38.8053C28.5099 39.6789 29.0402 40.4726 29.7088 41.1412C30.3774 41.8098 31.1711 42.3401 32.0447 42.7019C32.9182 43.0638 33.8545 43.25 34.8 43.25C35.7455 43.25 36.6818 43.0638 37.5553 42.7019C38.4288 42.3401 39.2226 41.8098 39.8911 41.1412C40.5597 40.4726 41.0901 39.6789 41.4519 38.8053C41.8137 37.9318 42 36.9955 42 36.05C42 35.1045 41.8137 34.1682 41.4519 33.2947C41.0901 32.4211 40.5597 31.6274 39.8911 30.9588C39.2226 30.2903 38.4288 29.7599 37.5553 29.3981C36.6818 29.0362 35.7455 28.85 34.8 28.85Z" fill="#FDFCEE"/>
<path d="M34.8 43.45C30.7 43.45 27.4 40.15 27.4 36.05C27.4 31.95 30.7 28.65 34.8 28.65C38.9 28.65 42.2 31.95 42.2 36.05C42.2 40.1 38.9 43.45 34.8 43.45ZM34.8 29C30.9 29 27.75 32.15 27.75 36.05C27.75 39.95 30.9 43.1 34.8 43.1C38.7 43.1 41.85 39.95 41.85 36.05C41.85 32.15 38.7 29 34.8 29Z" fill="#472B29"/>
<path d="M34.8 30.1C33.2219 30.1 31.7085 30.7269 30.5927 31.8427C29.4768 32.9586 28.85 34.472 28.85 36.05C28.85 37.628 29.4768 39.1414 30.5927 40.2573C31.7085 41.3731 33.2219 42 34.8 42C36.378 42 37.8914 41.3731 39.0073 40.2573C40.1231 39.1414 40.75 37.628 40.75 36.05C40.75 34.472 40.1231 32.9586 39.0073 31.8427C37.8914 30.7269 36.378 30.1 34.8 30.1Z" fill="#EE3E54"/>
<path d="M34.8 42.1C31.4499 42.1 28.7 39.35 28.7 36C28.7 32.65 31.4499 29.9 34.8 29.9C38.15 29.9 40.9 32.65 40.9 36C40.9 39.4 38.2 42.1 34.8 42.1ZM34.8 30.2C31.5999 30.2 28.95 32.8 28.95 36.05C28.95 39.3 31.5499 41.9 34.8 41.9C38.05 41.9 40.65 39.3 40.65 36.05C40.65 32.8 38.05 30.2 34.8 30.2Z" fill="#472B29"/>
<path opacity="0.79" d="M34.85 31C37.4 31 39.7 32.55 40.6 34.95C40 31.8 36.95 29.7 33.8 30.3C31.45 30.75 29.6 32.6 29.15 34.95C30 32.55 32.3 31 34.85 31Z" fill="#F4989E"/>
<path d="M34.6499 35.35L37.2999 36.35C37.5499 36.45 37.7499 36.65 37.7499 36.9C37.7499 37.1 38.6499 37.4 38.6499 37.4L38.4999 37.8C38.4999 37.8 37.6499 37.45 37.4999 37.55C37.2999 37.7 37.0499 37.75 36.7999 37.65L34.1499 36.65L34.6499 35.35Z" fill="#FDFCEE"/>
<path d="M38.5 37.95C38.05 37.8 37.65 37.65 37.55 37.7C37.3 37.9 37 37.95 36.7 37.8L34.05 36.8C34 36.8 33.95 36.7 34 36.65L34.5 35.3C34.5 35.25 34.55 35.25 34.55 35.25C34.6 35.25 34.6 35.25 34.65 35.25L37.3 36.25C37.6 36.35 37.8 36.6 37.85 36.9C37.9 37 38.3 37.15 38.7 37.3C38.75 37.3 38.75 37.35 38.75 37.35C38.75 37.4 38.75 37.4 38.75 37.45L38.6 37.85C38.65 37.9 38.6 37.9 38.5 37.95C38.55 37.95 38.55 37.95 38.5 37.95ZM37.65 37.45C37.85 37.45 38.1 37.5 38.45 37.65L38.5 37.5C37.9 37.3 37.6 37.1 37.6 36.9C37.55 36.7 37.4 36.55 37.2 36.45L34.7 35.5L34.3 36.6L36.8 37.55C37 37.65 37.2 37.6 37.4 37.45C37.5 37.45 37.55 37.45 37.65 37.45Z" fill="#472B29"/>
<path d="M33.5 36.85L33.55 36.7L31.9 36.1C30.85 35.75 31.3 33.95 32.75 34.45L34.2 35L34.25 34.85C34.25 34.8 34.3 34.75 34.35 34.75C34.65 34.7 34.85 34.9 34.75 35.1L34.05 37C34 37.15 33.7 37.2 33.55 37C33.5 36.95 33.45 36.9 33.5 36.85Z" fill="#8889B9"/>
<path d="M33.8 37.25C33.65 37.25 33.55 37.2 33.45 37.1C33.35 37 33.35 36.9 33.35 36.8L31.85 36.2C31.5 36.1 31.3 35.8 31.2 35.45C31.15 35.1 31.25 34.7 31.55 34.45C31.85 34.2 32.3 34.15 32.75 34.3L34.1 34.8C34.15 34.7 34.2 34.65 34.3 34.65C34.5 34.6 34.7 34.65 34.8 34.8C34.9 34.9 34.9 35.05 34.85 35.15L34.15 37.1C34.1 37.2 34 37.3 33.85 37.3C33.85 37.25 33.85 37.25 33.8 37.25ZM32.3 34.45C32.1 34.45 31.9 34.5 31.75 34.65C31.55 34.85 31.45 35.15 31.5 35.4C31.55 35.65 31.7 35.85 32 35.95L33.65 36.55C33.7 36.55 33.7 36.6 33.7 36.6C33.7 36.65 33.7 36.65 33.7 36.7L33.65 36.85C33.65 36.85 33.65 36.85 33.7 36.9C33.75 36.95 33.85 37 33.9 37C33.95 37 34 36.95 34 36.95L34.7 35C34.7 34.95 34.7 34.95 34.7 34.9C34.65 34.85 34.55 34.8 34.45 34.85L34.3 35C34.3 35.05 34.2 35.1 34.15 35.05L32.7 34.5C32.55 34.5 32.4 34.45 32.3 34.45Z" fill="#472B29"/>
<path d="M33.9 36.1C33.85 36.1 33.85 36.1 33.9 36.1C33.85 36.1 33.8 36.05 33.85 36L34.25 34.95C34.25 34.9 34.3 34.9 34.35 34.9C34.4 34.9 34.4 34.95 34.4 35L34 36.05C33.95 36.05 33.9 36.1 33.9 36.1ZM33.75 36.45C33.75 36.45 33.7 36.45 33.75 36.45C33.7 36.45 33.65 36.4 33.7 36.35L33.75 36.2C33.75 36.15 33.8 36.15 33.85 36.15C33.9 36.15 33.9 36.2 33.9 36.25L33.85 36.4C33.8 36.4 33.75 36.45 33.75 36.45ZM35.8 36.25C35.75 36.25 35.7 36.2 35.75 36.15L35.85 35.85C35.85 35.8 35.9 35.8 35.95 35.8C36 35.8 36 35.85 36 35.9L35.9 36.2C35.85 36.2 35.85 36.25 35.8 36.25ZM36.15 36.35C36.1 36.35 36.1 36.35 36.15 36.35C36.1 36.35 36.05 36.3 36.1 36.25L36.2 35.95C36.2 35.9 36.25 35.9 36.3 35.9C36.35 35.9 36.35 35.95 36.35 36L36.25 36.3C36.2 36.35 36.15 36.35 36.15 36.35ZM36.45 36.5C36.45 36.5 36.4 36.5 36.45 36.5C36.4 36.5 36.35 36.45 36.4 36.4L36.5 36.1C36.5 36.05 36.55 36.05 36.6 36.05C36.65 36.05 36.65 36.1 36.65 36.15L36.5 36.45L36.45 36.5ZM36.75 36.6C36.7 36.6 36.65 36.55 36.7 36.5L36.8 36.2C36.8 36.15 36.85 36.15 36.9 36.15C36.95 36.15 36.95 36.2 36.95 36.25L36.85 36.55C36.8 36.6 36.8 36.6 36.75 36.6ZM37.05 36.75C37.05 36.75 37.05 36.7 37.05 36.75C37 36.75 36.95 36.7 37 36.65L37.1 36.35C37.1 36.3 37.15 36.3 37.2 36.3C37.25 36.3 37.25 36.35 37.25 36.4L37.15 36.7C37.1 36.7 37.1 36.75 37.05 36.75ZM35.2 36C35.2 36 35.15 36 35.2 36C35.15 36 35.1 35.95 35.15 35.9L35.25 35.6C35.25 35.55 35.3 35.55 35.35 35.55C35.4 35.55 35.4 35.6 35.4 35.65L35.3 35.95C35.25 36 35.2 36 35.2 36ZM35.5 36.1C35.45 36.1 35.4 36.05 35.45 36L35.55 35.7C35.55 35.65 35.6 35.65 35.65 35.65C35.7 35.65 35.7 35.7 35.7 35.75L35.6 36.05C35.55 36.1 35.55 36.1 35.5 36.1Z" fill="#472B29"/>
</svg>
